<svg xmlns="http://www.w3.org/2000/svg" xmlns:xlink="http://www.w3.org/1999/xlink" width="635" zoomAndPan="magnify" viewBox="0 0 476.25 165.000002" height="220" preserveAspectRatio="xMidYMid meet" version="1.0"><defs><clipPath id="cefbd55b4c"><path d="M 1.0625 0 L 474.441406 0 L 474.441406 164.007812 L 1.0625 164.007812 Z M 1.0625 0 " clip-rule="nonzero"/></clipPath><clipPath id="7445ebd767"><path d="M 194.183594 50.796875 L 285.828125 50.796875 L 285.828125 113.191406 L 194.183594 113.191406 Z M 194.183594 50.796875 " clip-rule="nonzero"/></clipPath><clipPath id="7f80d2b61f"><path d="M 257.824219 93.726562 L 194.359375 93.726562 L 194.359375 70.269531 L 257.828125 70.269531 L 250.472656 50.796875 L 285.828125 81.996094 L 250.472656 113.191406 Z M 257.824219 93.726562 " clip-rule="nonzero"/></clipPath><clipPath id="f47b5fc386"><path d="M 0.289062 0.796875 L 91.828125 0.796875 L 91.828125 63.191406 L 0.289062 63.191406 Z M 0.289062 0.796875 " clip-rule="nonzero"/></clipPath><clipPath id="00ff42f167"><path d="M 63.824219 43.726562 L 0.359375 43.726562 L 0.359375 20.269531 L 63.828125 20.269531 L 56.472656 0.796875 L 91.828125 31.996094 L 56.472656 63.191406 Z M 63.824219 43.726562 " clip-rule="nonzero"/></clipPath><clipPath id="6b3941ac69"><rect x="0" width="92" y="0" height="64"/></clipPath><clipPath id="0100e4dc0a"><path d="M 308.414062 12.507812 L 463 12.507812 L 463 151.5 L 308.414062 151.5 Z M 308.414062 12.507812 " clip-rule="nonzero"/></clipPath><clipPath id="1bc90ae8ab"><path d="M 322.578125 12.507812 L 448.574219 12.507812 C 452.332031 12.507812 455.933594 14 458.589844 16.65625 C 461.246094 19.3125 462.738281 22.914062 462.738281 26.671875 L 462.738281 137.335938 C 462.738281 141.089844 461.246094 144.695312 458.589844 147.351562 C 455.933594 150.007812 452.332031 151.5 448.574219 151.5 L 322.578125 151.5 C 318.820312 151.5 315.21875 150.007812 312.5625 147.351562 C 309.90625 144.695312 308.414062 141.089844 308.414062 137.335938 L 308.414062 26.671875 C 308.414062 22.914062 309.90625 19.3125 312.5625 16.65625 C 315.21875 14 318.820312 12.507812 322.578125 12.507812 Z M 322.578125 12.507812 " clip-rule="nonzero"/></clipPath><clipPath id="13b6cfb821"><path d="M 0.414062 0.507812 L 154.902344 0.507812 L 154.902344 139.5 L 0.414062 139.5 Z M 0.414062 0.507812 " clip-rule="nonzero"/></clipPath><clipPath id="7eb3769569"><path d="M 14.578125 0.507812 L 140.574219 0.507812 C 144.332031 0.507812 147.933594 2 150.589844 4.65625 C 153.246094 7.3125 154.738281 10.914062 154.738281 14.671875 L 154.738281 125.335938 C 154.738281 129.089844 153.246094 132.695312 150.589844 135.351562 C 147.933594 138.007812 144.332031 139.5 140.574219 139.5 L 14.578125 139.5 C 10.820312 139.5 7.21875 138.007812 4.5625 135.351562 C 1.90625 132.695312 0.414062 129.089844 0.414062 125.335938 L 0.414062 14.671875 C 0.414062 10.914062 1.90625 7.3125 4.5625 4.65625 C 7.21875 2 10.820312 0.507812 14.578125 0.507812 Z M 14.578125 0.507812 " clip-rule="nonzero"/></clipPath><clipPath id="6d92da1970"><rect x="0" width="155" y="0" height="140"/></clipPath><clipPath id="6487185891"><path d="M 308.414062 12.507812 L 462.726562 12.507812 L 462.726562 151.167969 L 308.414062 151.167969 Z M 308.414062 12.507812 " clip-rule="nonzero"/></clipPath><clipPath id="4152a437f4"><path d="M 322.578125 12.507812 L 448.566406 12.507812 C 452.320312 12.507812 455.925781 14 458.582031 16.65625 C 461.234375 19.3125 462.726562 22.914062 462.726562 26.671875 L 462.726562 137.328125 C 462.726562 141.082031 461.234375 144.6875 458.582031 147.34375 C 455.925781 150 452.320312 151.492188 448.566406 151.492188 L 322.578125 151.492188 C 318.820312 151.492188 315.21875 150 312.5625 147.34375 C 309.90625 144.6875 308.414062 141.082031 308.414062 137.328125 L 308.414062 26.671875 C 308.414062 22.914062 309.90625 19.3125 312.5625 16.65625 C 315.21875 14 318.820312 12.507812 322.578125 12.507812 Z M 322.578125 12.507812 " clip-rule="nonzero"/></clipPath><clipPath id="74bd3fe1c1"><path d="M 323.175781 28.0625 L 447.667969 28.0625 L 447.667969 139.886719 L 323.175781 139.886719 Z M 323.175781 28.0625 " clip-rule="nonzero"/></clipPath><clipPath id="8b28ca68b4"><path d="M 17.460938 12.515625 L 172 12.515625 L 172 151.507812 L 17.460938 151.507812 Z M 17.460938 12.515625 " clip-rule="nonzero"/></clipPath><clipPath id="d3c1c3ecb4"><path d="M 31.625 12.515625 L 157.625 12.515625 C 161.382812 12.515625 164.984375 14.007812 167.640625 16.664062 C 170.296875 19.320312 171.789062 22.925781 171.789062 26.679688 L 171.789062 137.34375 C 171.789062 141.101562 170.296875 144.703125 167.640625 147.359375 C 164.984375 150.015625 161.382812 151.507812 157.625 151.507812 L 31.625 151.507812 C 27.871094 151.507812 24.265625 150.015625 21.609375 147.359375 C 18.953125 144.703125 17.460938 141.101562 17.460938 137.34375 L 17.460938 26.679688 C 17.460938 22.925781 18.953125 19.320312 21.609375 16.664062 C 24.265625 14.007812 27.871094 12.515625 31.625 12.515625 Z M 31.625 12.515625 " clip-rule="nonzero"/></clipPath><clipPath id="ba8a915a77"><path d="M 0.460938 0.515625 L 154.867188 0.515625 L 154.867188 139.507812 L 0.460938 139.507812 Z M 0.460938 0.515625 " clip-rule="nonzero"/></clipPath><clipPath id="aacc9ce23f"><path d="M 14.625 0.515625 L 140.625 0.515625 C 144.382812 0.515625 147.984375 2.007812 150.640625 4.664062 C 153.296875 7.320312 154.789062 10.925781 154.789062 14.679688 L 154.789062 125.34375 C 154.789062 129.101562 153.296875 132.703125 150.640625 135.359375 C 147.984375 138.015625 144.382812 139.507812 140.625 139.507812 L 14.625 139.507812 C 10.871094 139.507812 7.265625 138.015625 4.609375 135.359375 C 1.953125 132.703125 0.460938 129.101562 0.460938 125.34375 L 0.460938 14.679688 C 0.460938 10.925781 1.953125 7.320312 4.609375 4.664062 C 7.265625 2.007812 10.871094 0.515625 14.625 0.515625 Z M 14.625 0.515625 " clip-rule="nonzero"/></clipPath><clipPath id="778ec80aa2"><rect x="0" width="155" y="0" height="140"/></clipPath><clipPath id="589bdac13c"><path d="M 17.460938 12.519531 L 171.777344 12.519531 L 171.777344 151.175781 L 17.460938 151.175781 Z M 17.460938 12.519531 " clip-rule="nonzero"/></clipPath><clipPath id="f3b7e4ab15"><path d="M 31.625 12.519531 L 157.613281 12.519531 C 161.371094 12.519531 164.972656 14.011719 167.628906 16.667969 C 170.285156 19.324219 171.777344 22.925781 171.777344 26.679688 L 171.777344 137.335938 C 171.777344 141.09375 170.285156 144.695312 167.628906 147.351562 C 164.972656 150.007812 161.371094 151.5 157.613281 151.5 L 31.625 151.5 C 27.871094 151.5 24.265625 150.007812 21.609375 147.351562 C 18.953125 144.695312 17.460938 141.09375 17.460938 137.335938 L 17.460938 26.679688 C 17.460938 22.925781 18.953125 19.324219 21.609375 16.667969 C 24.265625 14.011719 27.871094 12.519531 31.625 12.519531 Z M 31.625 12.519531 " clip-rule="nonzero"/></clipPath><clipPath id="f81414a810"><path d="M 54.109375 25.730469 L 135.367188 25.730469 L 135.367188 138.300781 L 54.109375 138.300781 Z M 54.109375 25.730469 " clip-rule="nonzero"/></clipPath></defs><g clip-path="url(#cefbd55b4c)"><path fill="#ffffff" d="M 1.0625 0 L 474.441406 0 L 474.441406 164.007812 L 1.0625 164.007812 Z M 1.0625 0 " fill-opacity="1" fill-rule="nonzero"/><path fill="#ffffcf" d="M 1.0625 0 L 474.441406 0 L 474.441406 164.007812 L 1.0625 164.007812 Z M 1.0625 0 " fill-opacity="1" fill-rule="nonzero"/></g><g clip-path="url(#7445ebd767)"><g clip-path="url(#7f80d2b61f)"><g transform="matrix(1, 0, 0, 1, 194, 50)"><g clip-path="url(#6b3941ac69)"><g clip-path="url(#f47b5fc386)"><g clip-path="url(#00ff42f167)"><path fill="#545454" d="M 91.828125 63.191406 L 0.429688 63.191406 L 0.429688 0.796875 L 91.828125 0.796875 Z M 91.828125 63.191406 " fill-opacity="1" fill-rule="nonzero"/></g></g></g></g></g></g><g clip-path="url(#0100e4dc0a)"><g clip-path="url(#1bc90ae8ab)"><g transform="matrix(1, 0, 0, 1, 308, 12)"><g clip-path="url(#6d92da1970)"><g clip-path="url(#13b6cfb821)"><g clip-path="url(#7eb3769569)"><path fill="#ffffff" d="M 0.414062 0.507812 L 154.609375 0.507812 L 154.609375 139.5 L 0.414062 139.5 Z M 0.414062 0.507812 " fill-opacity="1" fill-rule="nonzero"/></g></g></g></g></g></g><g clip-path="url(#6487185891)"><g clip-path="url(#4152a437f4)"><path stroke-linecap="butt" transform="matrix(0.745482, 0, 0, 0.745482, 308.413712, 12.506902)" fill="none" stroke-linejoin="miter" d="M 19.000344 0.00122117 L 188.0028 0.00122117 C 193.038343 0.00122117 197.874769 2.002863 201.4379 5.565994 C 204.995792 9.129125 206.997433 13.960312 206.997433 19.001094 L 206.997433 167.436948 C 206.997433 172.47249 204.995792 177.308917 201.4379 180.872048 C 197.874769 184.435179 193.038343 186.436821 188.0028 186.436821 L 19.000344 186.436821 C 13.959561 186.436821 9.128374 184.435179 5.565243 180.872048 C 2.002112 177.308917 0.00047046 172.47249 0.00047046 167.436948 L 0.00047046 19.001094 C 0.00047046 13.960312 2.002112 9.129125 5.565243 5.565994 C 9.128374 2.002863 13.959561 0.00122117 19.000344 0.00122117 Z M 19.000344 0.00122117 " stroke="#000000" stroke-width="8" stroke-opacity="1" stroke-miterlimit="4"/></g></g><g clip-path="url(#74bd3fe1c1)"><path fill="#545454" d="M 434.96875 73.230469 C 436.355469 91.808594 427.070312 109.527344 411.082031 118.929688 C 410.199219 119.449219 409.035156 119.167969 408.496094 118.257812 C 407.964844 117.355469 408.269531 116.199219 409.171875 115.667969 C 424.039062 106.890625 432.480469 90.734375 431.210938 73.503906 C 431.128906 72.460938 431.917969 71.558594 432.945312 71.480469 C 433.988281 71.398438 434.90625 72.1875 434.96875 73.230469 Z M 364.144531 118.257812 C 363.601562 119.171875 362.4375 119.449219 361.558594 118.933594 C 345.570312 109.527344 336.265625 91.75 337.671875 73.230469 C 337.75 72.1875 338.652344 71.398438 339.695312 71.480469 C 340.742188 71.558594 341.511719 72.460938 341.433594 73.503906 C 340.160156 90.738281 348.601562 106.890625 363.484375 115.667969 C 364.386719 116.199219 364.675781 117.355469 364.144531 118.257812 Z M 356.476562 40.664062 C 355.835938 39.828125 355.996094 38.636719 356.832031 38.011719 C 372.277344 26.277344 393.175781 24.8125 410.085938 34.265625 C 411.003906 34.78125 411.324219 35.921875 410.828125 36.835938 C 410.3125 37.753906 409.15625 38.074219 408.238281 37.5625 C 392.644531 28.847656 373.355469 30.199219 359.113281 41.015625 C 358.304688 41.652344 357.109375 41.488281 356.476562 40.664062 Z M 326.949219 61.0625 L 326.949219 44.941406 C 326.949219 44.007812 327.703125 43.253906 328.621094 43.253906 L 331.660156 43.253906 C 332.382812 43.253906 332.945312 43.636719 333.21875 44.296875 L 334.148438 46.59375 C 335 48.699219 336.945312 50.003906 339.214844 50.003906 L 350.546875 50.003906 C 351.476562 50.003906 352.234375 50.742188 352.234375 51.675781 L 352.234375 61.0625 C 352.234375 61.980469 351.476562 62.734375 350.546875 62.734375 L 328.621094 62.734375 C 327.703125 62.734375 326.949219 61.980469 326.949219 61.0625 Z M 356.011719 61.0625 L 356.011719 51.675781 C 356.011719 48.667969 353.570312 46.210938 350.546875 46.210938 L 339.214844 46.210938 C 338.488281 46.210938 337.925781 45.839844 337.652344 45.179688 L 336.722656 42.867188 C 335.855469 40.777344 333.925781 39.472656 331.660156 39.472656 L 328.621094 39.472656 C 325.613281 39.472656 323.171875 41.933594 323.171875 44.941406 L 323.171875 61.0625 C 323.171875 64.070312 325.613281 66.511719 328.621094 66.511719 L 350.546875 66.511719 C 353.566406 66.511719 356.011719 64.070312 356.011719 61.0625 Z M 444.179688 61.0625 C 444.179688 61.980469 443.441406 62.734375 442.507812 62.734375 L 420.582031 62.734375 C 419.652344 62.734375 418.894531 61.980469 418.894531 61.0625 L 418.894531 44.941406 C 418.894531 44.007812 419.652344 43.253906 420.582031 43.253906 L 423.621094 43.253906 C 424.328125 43.253906 424.890625 43.636719 425.164062 44.296875 L 426.113281 46.613281 C 426.964844 48.699219 428.894531 50.003906 431.160156 50.003906 L 442.507812 50.003906 C 443.441406 50.003906 444.179688 50.742188 444.179688 51.675781 Z M 442.507812 46.210938 L 431.160156 46.210938 C 430.453125 46.210938 429.875 45.839844 429.617188 45.179688 L 428.667969 42.867188 C 427.816406 40.777344 425.871094 39.472656 423.621094 39.472656 L 420.582031 39.472656 C 417.5625 39.472656 415.117188 41.933594 415.117188 44.941406 L 415.117188 61.0625 C 415.117188 64.070312 417.5625 66.511719 420.582031 66.511719 L 442.507812 66.511719 C 445.515625 66.511719 447.976562 64.070312 447.976562 61.0625 L 447.976562 51.675781 C 447.976562 48.667969 445.515625 46.210938 442.507812 46.210938 Z M 398.964844 134.28125 C 398.964844 135.214844 398.207031 135.953125 397.292969 135.953125 L 375.347656 135.953125 C 374.433594 135.953125 373.679688 135.214844 373.679688 134.28125 L 373.679688 118.160156 C 373.679688 117.242188 374.433594 116.488281 375.347656 116.488281 L 378.402344 116.488281 C 379.109375 116.488281 379.675781 116.875 379.945312 117.53125 L 380.894531 119.832031 C 381.746094 121.921875 383.675781 123.222656 385.941406 123.222656 L 397.292969 123.222656 C 398.207031 123.222656 398.964844 123.980469 398.964844 124.910156 Z M 397.292969 119.445312 L 385.941406 119.445312 C 385.21875 119.445312 384.65625 119.058594 384.382812 118.402344 L 383.449219 116.101562 C 382.597656 114.011719 380.652344 112.710938 378.402344 112.710938 L 375.347656 112.710938 C 372.34375 112.710938 369.898438 115.152344 369.898438 118.160156 L 369.898438 134.28125 C 369.898438 137.289062 372.34375 139.75 375.347656 139.75 L 397.292969 139.75 C 400.296875 139.75 402.742188 137.289062 402.742188 134.28125 L 402.742188 124.910156 C 402.742188 121.890625 400.296875 119.445312 397.292969 119.445312 Z M 371.203125 67.957031 C 371.539062 66.976562 372.617188 66.464844 373.613281 66.816406 C 374.273438 67.058594 375.042969 67.25 375.878906 67.410156 C 376.910156 67.589844 377.601562 68.585938 377.40625 69.613281 C 377.210938 70.625 376.261719 71.296875 375.203125 71.125 C 374.160156 70.933594 373.195312 70.675781 372.34375 70.386719 C 371.363281 70.03125 370.847656 68.9375 371.203125 67.957031 Z M 371.203125 82.875 C 371.539062 81.894531 372.617188 81.382812 373.613281 81.734375 C 374.273438 81.976562 375.042969 82.167969 375.878906 82.328125 C 376.910156 82.507812 377.601562 83.503906 377.40625 84.53125 C 377.210938 85.542969 376.261719 86.214844 375.203125 86.042969 C 374.160156 85.851562 373.195312 85.59375 372.34375 85.304688 C 371.363281 84.949219 370.847656 83.871094 371.203125 82.875 Z M 377.40625 99.449219 C 377.207031 100.46875 376.257812 101.132812 375.203125 100.960938 C 374.160156 100.765625 373.195312 100.527344 372.34375 100.21875 C 371.363281 99.867188 370.847656 98.789062 371.203125 97.792969 C 371.539062 96.8125 372.617188 96.296875 373.613281 96.652344 C 374.273438 96.894531 375.042969 97.085938 375.878906 97.246094 C 376.910156 97.441406 377.601562 98.421875 377.40625 99.449219 Z M 400.234375 103.773438 C 403.769531 102.4375 405.039062 100.945312 405.039062 100.074219 L 405.039062 90.734375 C 396.460938 96.109375 376.164062 96.109375 367.617188 90.734375 L 367.617188 100.074219 C 367.617188 100.945312 368.871094 102.4375 372.40625 103.773438 C 380.054688 106.628906 392.582031 106.613281 400.234375 103.773438 Z M 367.617188 75.820312 L 367.617188 85.160156 C 367.617188 86.027344 368.871094 87.523438 372.40625 88.839844 C 380.042969 91.691406 392.59375 91.699219 400.234375 88.839844 C 403.769531 87.523438 405.039062 86.027344 405.039062 85.160156 L 405.039062 75.820312 C 396.410156 81.191406 376.210938 81.191406 367.617188 75.820312 Z M 367.617188 60.902344 L 367.617188 70.242188 C 367.617188 71.109375 368.871094 72.605469 372.40625 73.921875 C 380.042969 76.773438 392.59375 76.78125 400.234375 73.921875 C 403.769531 72.605469 405.039062 71.109375 405.039062 70.242188 L 405.039062 60.902344 C 396.410156 66.273438 376.210938 66.273438 367.617188 60.902344 Z M 372.40625 51.644531 C 380.042969 48.789062 392.585938 48.789062 400.234375 51.644531 C 403.769531 52.960938 405.039062 54.457031 405.039062 55.324219 C 405.039062 56.191406 403.769531 57.6875 400.234375 59.003906 C 392.585938 61.859375 380.050781 61.859375 372.40625 59.003906 C 368.871094 57.6875 367.617188 56.191406 367.617188 55.324219 C 367.617188 54.457031 368.871094 52.960938 372.40625 51.644531 Z M 408.816406 85.160156 L 408.816406 55.324219 C 408.816406 49.023438 397.5 45.710938 386.328125 45.710938 C 375.140625 45.710938 363.824219 49.023438 363.824219 55.324219 L 363.824219 100.074219 C 363.824219 106.394531 375.140625 109.6875 386.328125 109.6875 C 397.5 109.6875 408.816406 106.394531 408.816406 100.074219 Z M 408.816406 85.160156 " fill-opacity="1" fill-rule="evenodd"/></g><g clip-path="url(#8b28ca68b4)"><g clip-path="url(#d3c1c3ecb4)"><g transform="matrix(1, 0, 0, 1, 17, 12)"><g clip-path="url(#778ec80aa2)"><g clip-path="url(#ba8a915a77)"><g clip-path="url(#aacc9ce23f)"><path fill="#ffffff" d="M 0.460938 0.515625 L 154.65625 0.515625 L 154.65625 139.507812 L 0.460938 139.507812 Z M 0.460938 0.515625 " fill-opacity="1" fill-rule="nonzero"/></g></g></g></g></g></g><g clip-path="url(#589bdac13c)"><g clip-path="url(#f3b7e4ab15)"><path stroke-linecap="butt" transform="matrix(0.745482, 0, 0, 0.745482, 17.462346, 12.51646)" fill="none" stroke-linejoin="miter" d="M 18.997984 0.00411975 L 188.00044 0.00411975 C 193.041223 0.00411975 197.872409 2.005761 201.43554 5.568892 C 204.998672 9.132023 207.000313 13.96321 207.000313 18.998753 L 207.000313 167.434606 C 207.000313 172.475389 204.998672 177.306576 201.43554 180.869707 C 197.872409 184.432838 193.041223 186.434479 188.00044 186.434479 L 18.997984 186.434479 C 13.962441 186.434479 9.126014 184.432838 5.562883 180.869707 C 1.999752 177.306576 -0.00188943 172.475389 -0.00188943 167.434606 L -0.00188943 18.998753 C -0.00188943 13.96321 1.999752 9.132023 5.562883 5.568892 C 9.126014 2.005761 13.962441 0.00411975 18.997984 0.00411975 Z M 18.997984 0.00411975 " stroke="#000000" stroke-width="8" stroke-opacity="1" stroke-miterlimit="4"/></g></g><g clip-path="url(#f81414a810)"><path fill="#545454" d="M 135.117188 43.664062 C 135.117188 43.648438 135.113281 43.632812 135.113281 43.617188 C 135.109375 43.558594 135.101562 43.5 135.09375 43.445312 C 135.09375 43.441406 135.09375 43.441406 135.09375 43.4375 C 135.082031 43.375 135.0625 43.316406 135.042969 43.257812 C 135.039062 43.246094 135.035156 43.234375 135.03125 43.226562 C 135.011719 43.171875 134.988281 43.117188 134.960938 43.066406 C 134.960938 43.0625 134.957031 43.058594 134.957031 43.054688 C 134.929688 43 134.894531 42.949219 134.859375 42.898438 C 134.851562 42.886719 134.84375 42.875 134.835938 42.867188 C 134.796875 42.816406 134.753906 42.769531 134.710938 42.726562 L 118.265625 26.28125 C 118.222656 26.234375 118.171875 26.195312 118.125 26.15625 C 118.113281 26.148438 118.101562 26.140625 118.089844 26.132812 C 118.042969 26.097656 117.992188 26.0625 117.9375 26.03125 C 117.933594 26.03125 117.929688 26.027344 117.921875 26.027344 C 117.871094 26 117.820312 25.976562 117.769531 25.957031 C 117.757812 25.953125 117.746094 25.949219 117.734375 25.945312 C 117.675781 25.925781 117.617188 25.90625 117.554688 25.894531 C 117.550781 25.894531 117.546875 25.894531 117.542969 25.894531 C 117.488281 25.882812 117.433594 25.878906 117.378906 25.871094 C 117.359375 25.871094 117.34375 25.871094 117.324219 25.871094 C 117.3125 25.871094 117.292969 25.867188 117.28125 25.867188 L 55.5 25.867188 C 54.730469 25.867188 54.101562 26.496094 54.101562 27.265625 L 54.101562 136.726562 C 54.101562 137.496094 54.730469 138.125 55.5 138.125 L 133.722656 138.125 C 134.492188 138.125 135.117188 137.496094 135.117188 136.726562 L 135.117188 43.710938 C 135.117188 43.699219 135.117188 43.683594 135.117188 43.664062 Z M 118.671875 30.640625 L 130.347656 42.316406 L 118.671875 42.316406 Z M 56.898438 135.332031 L 56.898438 28.664062 L 115.878906 28.664062 L 115.878906 43.710938 C 115.878906 44.484375 116.503906 45.109375 117.277344 45.109375 L 132.324219 45.109375 L 132.324219 135.332031 Z M 104.238281 59.726562 C 105.007812 59.726562 105.636719 59.101562 105.636719 58.328125 L 105.636719 52.71875 L 107.609375 52.71875 C 110.289062 52.71875 112.46875 50.539062 112.46875 47.859375 C 112.46875 45.179688 110.289062 43 107.609375 43 L 104.238281 43 C 103.46875 43 102.839844 43.625 102.839844 44.398438 L 102.839844 58.328125 C 102.839844 59.101562 103.464844 59.726562 104.238281 59.726562 Z M 109.671875 47.859375 C 109.671875 49 108.746094 49.925781 107.605469 49.925781 L 105.632812 49.925781 L 105.632812 45.792969 L 107.605469 45.792969 C 108.746094 45.792969 109.671875 46.722656 109.671875 47.859375 Z M 94.644531 59.726562 C 97.328125 59.726562 99.507812 57.546875 99.507812 54.867188 L 99.507812 47.859375 C 99.507812 45.179688 97.328125 43 94.644531 43 C 91.964844 43 89.785156 45.179688 89.785156 47.859375 L 89.785156 54.867188 C 89.785156 57.542969 91.964844 59.726562 94.644531 59.726562 Z M 92.578125 47.859375 C 92.578125 46.722656 93.507812 45.792969 94.644531 45.792969 C 95.785156 45.792969 96.710938 46.722656 96.710938 47.859375 L 96.710938 54.867188 C 96.710938 56.003906 95.785156 56.929688 94.644531 56.929688 C 93.507812 56.929688 92.578125 56.003906 92.578125 54.867188 Z M 79.550781 47.878906 C 79.550781 48.621094 80.324219 49.039062 82.097656 49.820312 C 82.296875 49.910156 82.5 50 82.699219 50.089844 C 82.894531 50.175781 83.085938 50.261719 83.277344 50.34375 C 85.15625 51.171875 87.492188 52.203125 87.492188 54.847656 C 87.492188 57.535156 85.085938 59.730469 82.125 59.730469 C 79.164062 59.730469 76.757812 57.539062 76.757812 54.847656 C 76.757812 54.074219 77.382812 53.449219 78.152344 53.449219 C 78.925781 53.449219 79.550781 54.074219 79.550781 54.847656 C 79.550781 55.996094 80.707031 56.933594 82.125 56.933594 C 83.542969 56.933594 84.699219 55.996094 84.699219 54.847656 C 84.699219 54.105469 83.921875 53.683594 82.148438 52.90625 C 81.949219 52.816406 81.746094 52.726562 81.546875 52.636719 C 81.355469 52.550781 81.164062 52.464844 80.972656 52.378906 C 79.09375 51.554688 76.753906 50.523438 76.753906 47.878906 C 76.753906 45.1875 79.164062 42.996094 82.121094 42.996094 C 85.082031 42.996094 87.492188 45.1875 87.492188 47.878906 C 87.492188 48.648438 86.863281 49.277344 86.09375 49.277344 C 85.324219 49.277344 84.695312 48.648438 84.695312 47.878906 C 84.695312 46.726562 83.542969 45.792969 82.121094 45.792969 C 80.703125 45.792969 79.550781 46.726562 79.550781 47.878906 Z M 87.851562 73.296875 C 87.851562 72.527344 88.480469 71.898438 89.25 71.898438 L 111.078125 71.898438 C 111.847656 71.898438 112.472656 72.527344 112.472656 73.296875 C 112.472656 74.066406 111.847656 74.695312 111.078125 74.695312 L 89.25 74.695312 C 88.480469 74.695312 87.851562 74.070312 87.851562 73.296875 Z M 124.296875 80.824219 C 124.296875 81.59375 123.667969 82.222656 122.898438 82.222656 L 89.25 82.222656 C 88.480469 82.222656 87.851562 81.59375 87.851562 80.824219 C 87.851562 80.054688 88.480469 79.425781 89.25 79.425781 L 122.898438 79.425781 C 123.667969 79.425781 124.296875 80.054688 124.296875 80.824219 Z M 81.59375 68.992188 L 80.292969 70.292969 C 80.105469 69.742188 79.585938 69.34375 78.96875 69.34375 L 66.324219 69.34375 C 65.550781 69.34375 64.925781 69.96875 64.925781 70.738281 L 64.925781 83.386719 C 64.925781 84.15625 65.550781 84.785156 66.324219 84.785156 L 78.96875 84.785156 C 79.742188 84.785156 80.367188 84.15625 80.367188 83.386719 L 80.367188 74.171875 L 83.566406 70.96875 C 84.113281 70.425781 84.113281 69.539062 83.566406 68.992188 C 83.023438 68.445312 82.136719 68.445312 81.59375 68.992188 Z M 77.570312 81.988281 L 67.71875 81.988281 L 67.71875 72.136719 L 77.570312 72.136719 L 77.570312 73.011719 L 73.746094 76.835938 L 71.574219 75.023438 C 70.984375 74.53125 70.101562 74.609375 69.605469 75.203125 C 69.113281 75.792969 69.191406 76.675781 69.785156 77.171875 L 72.933594 79.800781 C 73.195312 80.015625 73.511719 80.125 73.828125 80.125 C 74.1875 80.125 74.546875 79.984375 74.816406 79.714844 L 77.570312 76.960938 Z M 87.851562 96.066406 C 87.851562 95.292969 88.480469 94.667969 89.25 94.667969 L 111.078125 94.667969 C 111.847656 94.667969 112.472656 95.292969 112.472656 96.066406 C 112.472656 96.835938 111.847656 97.460938 111.078125 97.460938 L 89.25 97.460938 C 88.480469 97.460938 87.851562 96.835938 87.851562 96.066406 Z M 124.296875 103.59375 C 124.296875 104.363281 123.667969 104.988281 122.898438 104.988281 L 89.25 104.988281 C 88.480469 104.988281 87.851562 104.363281 87.851562 103.59375 C 87.851562 102.820312 88.480469 102.195312 89.25 102.195312 L 122.898438 102.195312 C 123.667969 102.195312 124.296875 102.820312 124.296875 103.59375 Z M 81.59375 91.757812 L 80.292969 93.058594 C 80.105469 92.507812 79.585938 92.109375 78.96875 92.109375 L 66.324219 92.109375 C 65.550781 92.109375 64.925781 92.734375 64.925781 93.503906 L 64.925781 106.152344 C 64.925781 106.921875 65.550781 107.550781 66.324219 107.550781 L 78.96875 107.550781 C 79.742188 107.550781 80.367188 106.921875 80.367188 106.152344 L 80.367188 96.9375 L 83.566406 93.734375 C 84.113281 93.191406 84.113281 92.304688 83.566406 91.761719 C 83.023438 91.214844 82.136719 91.214844 81.59375 91.757812 Z M 77.570312 104.753906 L 67.71875 104.753906 L 67.71875 94.902344 L 77.570312 94.902344 L 77.570312 95.777344 L 73.746094 99.605469 L 71.574219 97.792969 C 70.984375 97.300781 70.101562 97.378906 69.605469 97.96875 C 69.113281 98.5625 69.191406 99.445312 69.785156 99.9375 L 72.933594 102.566406 C 73.195312 102.785156 73.511719 102.890625 73.828125 102.890625 C 74.1875 102.890625 74.546875 102.753906 74.816406 102.480469 L 77.570312 99.726562 Z M 87.851562 118.832031 C 87.851562 118.0625 88.480469 117.433594 89.25 117.433594 L 111.078125 117.433594 C 111.847656 117.433594 112.472656 118.0625 112.472656 118.832031 C 112.472656 119.605469 111.847656 120.230469 111.078125 120.230469 L 89.25 120.230469 C 88.480469 120.230469 87.851562 119.605469 87.851562 118.832031 Z M 124.296875 126.359375 C 124.296875 127.128906 123.667969 127.753906 122.898438 127.753906 L 89.25 127.753906 C 88.480469 127.753906 87.851562 127.128906 87.851562 126.359375 C 87.851562 125.585938 88.480469 124.960938 89.25 124.960938 L 122.898438 124.960938 C 123.667969 124.960938 124.296875 125.585938 124.296875 126.359375 Z M 81.59375 114.527344 L 80.292969 115.828125 C 80.105469 115.273438 79.585938 114.875 78.96875 114.875 L 66.324219 114.875 C 65.550781 114.875 64.925781 115.503906 64.925781 116.273438 L 64.925781 128.917969 C 64.925781 129.691406 65.550781 130.316406 66.324219 130.316406 L 78.96875 130.316406 C 79.742188 130.316406 80.367188 129.691406 80.367188 128.917969 L 80.367188 119.703125 L 83.566406 116.503906 C 84.113281 115.957031 84.113281 115.074219 83.566406 114.527344 C 83.023438 113.980469 82.136719 113.980469 81.59375 114.527344 Z M 77.570312 127.519531 L 67.71875 127.519531 L 67.71875 117.667969 L 77.570312 117.667969 L 77.570312 118.542969 L 73.746094 122.371094 L 71.574219 120.558594 C 70.984375 120.066406 70.101562 120.144531 69.605469 120.734375 C 69.113281 121.328125 69.191406 122.210938 69.785156 122.703125 L 72.933594 125.332031 C 73.195312 125.550781 73.511719 125.65625 73.828125 125.65625 C 74.1875 125.65625 74.546875 125.519531 74.816406 125.246094 L 77.570312 122.492188 Z M 77.570312 127.519531 " fill-opacity="1" fill-rule="nonzero"/></g></svg>