<svg xmlns="http://www.w3.org/2000/svg" xmlns:xlink="http://www.w3.org/1999/xlink" width="635" zoomAndPan="magnify" viewBox="0 0 476.25 165.000002" height="220" preserveAspectRatio="xMidYMid meet" version="1.0"><defs><clipPath id="5cc58e398a"><path d="M 1.0625 0 L 474.441406 0 L 474.441406 164.007812 L 1.0625 164.007812 Z M 1.0625 0 " clip-rule="nonzero"/></clipPath><clipPath id="984bba0ad2"><path d="M 207.023438 58.949219 L 272.773438 58.949219 L 272.773438 103.714844 L 207.023438 103.714844 Z M 207.023438 58.949219 " clip-rule="nonzero"/></clipPath><clipPath id="cb261d8560"><path d="M 252.683594 89.746094 L 207.152344 89.746094 L 207.152344 72.917969 L 252.683594 72.917969 L 247.40625 58.949219 L 272.773438 81.332031 L 247.40625 103.714844 Z M 252.683594 89.746094 " clip-rule="nonzero"/></clipPath><clipPath id="513cf8187c"><path d="M 0.0234375 0.949219 L 65.773438 0.949219 L 65.773438 45.714844 L 0.0234375 45.714844 Z M 0.0234375 0.949219 " clip-rule="nonzero"/></clipPath><clipPath id="07cbc662f4"><path d="M 45.683594 31.746094 L 0.152344 31.746094 L 0.152344 14.917969 L 45.683594 14.917969 L 40.40625 0.949219 L 65.773438 23.332031 L 40.40625 45.714844 Z M 45.683594 31.746094 " clip-rule="nonzero"/></clipPath><clipPath id="657eb15244"><rect x="0" width="66" y="0" height="46"/></clipPath><clipPath id="948b9dc722"><path d="M 283.808594 14.753906 L 458.058594 14.753906 L 458.058594 147.910156 L 283.808594 147.910156 Z M 283.808594 14.753906 " clip-rule="nonzero"/></clipPath><clipPath id="c99205c0b4"><path d="M 301.703125 14.753906 L 440.152344 14.753906 C 444.894531 14.753906 449.445312 16.636719 452.800781 19.992188 C 456.15625 23.347656 458.042969 27.898438 458.042969 32.644531 L 458.042969 130.019531 C 458.042969 134.761719 456.15625 139.3125 452.800781 142.667969 C 449.445312 146.023438 444.894531 147.910156 440.152344 147.910156 L 301.703125 147.910156 C 296.957031 147.910156 292.40625 146.023438 289.050781 142.667969 C 285.695312 139.3125 283.808594 134.761719 283.808594 130.019531 L 283.808594 32.644531 C 283.808594 27.898438 285.695312 23.347656 289.050781 19.992188 C 292.40625 16.636719 296.957031 14.753906 301.703125 14.753906 Z M 301.703125 14.753906 " clip-rule="nonzero"/></clipPath><clipPath id="799ccdeb84"><path d="M 0.808594 0.753906 L 175.058594 0.753906 L 175.058594 133.910156 L 0.808594 133.910156 Z M 0.808594 0.753906 " clip-rule="nonzero"/></clipPath><clipPath id="796ba89d6d"><path d="M 18.703125 0.753906 L 157.152344 0.753906 C 161.894531 0.753906 166.445312 2.636719 169.800781 5.992188 C 173.15625 9.347656 175.042969 13.898438 175.042969 18.644531 L 175.042969 116.019531 C 175.042969 120.761719 173.15625 125.3125 169.800781 128.667969 C 166.445312 132.023438 161.894531 133.910156 157.152344 133.910156 L 18.703125 133.910156 C 13.957031 133.910156 9.40625 132.023438 6.050781 128.667969 C 2.695312 125.3125 0.808594 120.761719 0.808594 116.019531 L 0.808594 18.644531 C 0.808594 13.898438 2.695312 9.347656 6.050781 5.992188 C 9.40625 2.636719 13.957031 0.753906 18.703125 0.753906 Z M 18.703125 0.753906 " clip-rule="nonzero"/></clipPath><clipPath id="c0bf76e6bf"><rect x="0" width="176" y="0" height="134"/></clipPath><clipPath id="352c974423"><path d="M 283.808594 14.753906 L 458.253906 14.753906 L 458.253906 148 L 283.808594 148 Z M 283.808594 14.753906 " clip-rule="nonzero"/></clipPath><clipPath id="0966ea8097"><path d="M 301.699219 14.753906 L 440.140625 14.753906 C 444.886719 14.753906 449.4375 16.640625 452.792969 19.996094 C 456.144531 23.351562 458.03125 27.898438 458.03125 32.644531 L 458.03125 130.011719 C 458.03125 134.757812 456.144531 139.308594 452.792969 142.664062 C 449.4375 146.019531 444.886719 147.902344 440.140625 147.902344 L 301.699219 147.902344 C 296.957031 147.902344 292.40625 146.019531 289.050781 142.664062 C 285.695312 139.308594 283.808594 134.757812 283.808594 130.011719 L 283.808594 32.644531 C 283.808594 27.898438 285.695312 23.351562 289.050781 19.996094 C 292.40625 16.640625 296.957031 14.753906 301.699219 14.753906 Z M 301.699219 14.753906 " clip-rule="nonzero"/></clipPath><clipPath id="c45c2adee5"><path d="M 305.074219 20.445312 L 437 20.445312 L 437 141.957031 L 305.074219 141.957031 Z M 305.074219 20.445312 " clip-rule="nonzero"/></clipPath><clipPath id="4463120d20"><path d="M 17.460938 14.449219 L 191.710938 14.449219 L 191.710938 147.605469 L 17.460938 147.605469 Z M 17.460938 14.449219 " clip-rule="nonzero"/></clipPath><clipPath id="8929c4ad90"><path d="M 35.355469 14.449219 L 173.804688 14.449219 C 178.546875 14.449219 183.097656 16.332031 186.453125 19.6875 C 189.808594 23.042969 191.695312 27.59375 191.695312 32.339844 L 191.695312 129.714844 C 191.695312 134.460938 189.808594 139.011719 186.453125 142.363281 C 183.097656 145.71875 178.546875 147.605469 173.804688 147.605469 L 35.355469 147.605469 C 30.609375 147.605469 26.058594 145.71875 22.703125 142.363281 C 19.347656 139.011719 17.460938 134.460938 17.460938 129.714844 L 17.460938 32.339844 C 17.460938 27.59375 19.347656 23.042969 22.703125 19.6875 C 26.058594 16.332031 30.609375 14.449219 35.355469 14.449219 Z M 35.355469 14.449219 " clip-rule="nonzero"/></clipPath><clipPath id="779786a9cb"><path d="M 0.460938 0.449219 L 174.710938 0.449219 L 174.710938 133.605469 L 0.460938 133.605469 Z M 0.460938 0.449219 " clip-rule="nonzero"/></clipPath><clipPath id="5cfa13eb73"><path d="M 18.355469 0.449219 L 156.804688 0.449219 C 161.546875 0.449219 166.097656 2.332031 169.453125 5.6875 C 172.808594 9.042969 174.695312 13.59375 174.695312 18.339844 L 174.695312 115.714844 C 174.695312 120.460938 172.808594 125.011719 169.453125 128.363281 C 166.097656 131.71875 161.546875 133.605469 156.804688 133.605469 L 18.355469 133.605469 C 13.609375 133.605469 9.058594 131.71875 5.703125 128.363281 C 2.347656 125.011719 0.460938 120.460938 0.460938 115.714844 L 0.460938 18.339844 C 0.460938 13.59375 2.347656 9.042969 5.703125 5.6875 C 9.058594 2.332031 13.609375 0.449219 18.355469 0.449219 Z M 18.355469 0.449219 " clip-rule="nonzero"/></clipPath><clipPath id="cf87de677f"><rect x="0" width="175" y="0" height="134"/></clipPath><clipPath id="82cc4b6966"><path d="M 17.460938 14.449219 L 191.90625 14.449219 L 191.90625 147.890625 L 17.460938 147.890625 Z M 17.460938 14.449219 " clip-rule="nonzero"/></clipPath><clipPath id="ce4481c43f"><path d="M 35.351562 14.449219 L 173.792969 14.449219 C 178.539062 14.449219 183.089844 16.335938 186.445312 19.691406 C 189.800781 23.046875 191.683594 27.59375 191.683594 32.339844 L 191.683594 129.707031 C 191.683594 134.453125 189.800781 139.003906 186.445312 142.359375 C 183.089844 145.714844 178.539062 147.597656 173.792969 147.597656 L 35.351562 147.597656 C 30.609375 147.597656 26.058594 145.714844 22.703125 142.359375 C 19.347656 139.003906 17.460938 134.453125 17.460938 129.707031 L 17.460938 32.339844 C 17.460938 27.59375 19.347656 23.046875 22.703125 19.691406 C 26.058594 16.335938 30.609375 14.449219 35.351562 14.449219 Z M 35.351562 14.449219 " clip-rule="nonzero"/></clipPath><clipPath id="9c4791a845"><path d="M 48.488281 25.777344 L 160.308594 25.777344 L 160.308594 136.109375 L 48.488281 136.109375 Z M 48.488281 25.777344 " clip-rule="nonzero"/></clipPath></defs><g clip-path="url(#5cc58e398a)"><path fill="#ffffff" d="M 1.0625 0 L 474.441406 0 L 474.441406 164.007812 L 1.0625 164.007812 Z M 1.0625 0 " fill-opacity="1" fill-rule="nonzero"/><path fill="#ffffcf" d="M 1.0625 0 L 474.441406 0 L 474.441406 164.007812 L 1.0625 164.007812 Z M 1.0625 0 " fill-opacity="1" fill-rule="nonzero"/></g><g clip-path="url(#984bba0ad2)"><g clip-path="url(#cb261d8560)"><g transform="matrix(1, 0, 0, 1, 207, 58)"><g clip-path="url(#657eb15244)"><g clip-path="url(#513cf8187c)"><g clip-path="url(#07cbc662f4)"><path fill="#545454" d="M 65.773438 45.714844 L 0.199219 45.714844 L 0.199219 0.949219 L 65.773438 0.949219 Z M 65.773438 45.714844 " fill-opacity="1" fill-rule="nonzero"/></g></g></g></g></g></g><g clip-path="url(#948b9dc722)"><g clip-path="url(#c99205c0b4)"><g transform="matrix(1, 0, 0, 1, 283, 14)"><g clip-path="url(#c0bf76e6bf)"><g clip-path="url(#799ccdeb84)"><g clip-path="url(#796ba89d6d)"><path fill="#fdfdfd" d="M 0.808594 0.753906 L 175.058594 0.753906 L 175.058594 133.910156 L 0.808594 133.910156 Z M 0.808594 0.753906 " fill-opacity="1" fill-rule="nonzero"/></g></g></g></g></g></g><g clip-path="url(#352c974423)"><g clip-path="url(#0966ea8097)"><path stroke-linecap="butt" transform="matrix(0.745482, 0, 0, 0.745482, 283.809636, 14.753639)" fill="none" stroke-linejoin="miter" d="M 23.997341 0.000358056 L 209.704619 0.000358056 C 216.071097 0.000358056 222.17558 2.53123 226.676653 7.032303 C 231.172487 11.533377 233.703358 17.63262 233.703358 23.999098 L 233.703358 154.608832 C 233.703358 160.97531 231.172487 167.079793 226.676653 171.580867 C 222.17558 176.08194 216.071097 178.607572 209.704619 178.607572 L 23.997341 178.607572 C 17.636103 178.607572 11.531621 176.08194 7.030547 171.580867 C 2.529473 167.079793 -0.00139825 160.97531 -0.00139825 154.608832 L -0.00139825 23.999098 C -0.00139825 17.63262 2.529473 11.533377 7.030547 7.032303 C 11.531621 2.53123 17.636103 0.000358056 23.997341 0.000358056 Z M 23.997341 0.000358056 " stroke="#545454" stroke-width="6" stroke-opacity="1" stroke-miterlimit="4"/></g></g><g clip-path="url(#c45c2adee5)"><path fill="#545454" d="M 358.167969 45.988281 L 361.804688 49.574219 L 366.785156 48.460938 L 364.5 53.023438 L 367.097656 57.417969 L 362.050781 56.652344 L 358.675781 60.484375 L 357.839844 55.449219 L 353.15625 53.421875 L 357.6875 51.070312 Z M 377.398438 45.082031 L 379.523438 47.175781 L 382.4375 46.527344 L 381.101562 49.195312 L 382.621094 51.765625 L 379.667969 51.320312 L 377.695312 53.558594 L 377.207031 50.613281 L 374.464844 49.429688 L 377.117188 48.054688 Z M 383.675781 116.066406 L 384.15625 110.984375 L 388.6875 108.636719 L 384.003906 106.609375 L 383.167969 101.574219 L 379.792969 105.402344 L 374.746094 104.640625 L 377.34375 109.03125 L 375.058594 113.597656 L 380.039062 112.484375 Z M 398.988281 104.402344 L 399.269531 101.429688 L 401.921875 100.054688 L 399.179688 98.867188 L 398.691406 95.921875 L 396.71875 98.164062 L 393.765625 97.714844 L 395.285156 100.285156 L 393.949219 102.957031 L 396.863281 102.304688 Z M 364.445312 116.972656 L 364.726562 114.003906 L 367.375 112.628906 L 364.636719 111.441406 L 364.148438 108.496094 L 362.171875 110.738281 L 359.222656 110.289062 L 360.742188 112.859375 L 359.402344 115.53125 L 362.320312 114.878906 Z M 342.851562 57.65625 L 344.980469 59.75 L 347.894531 59.097656 L 346.558594 61.769531 L 348.074219 64.339844 L 345.125 63.890625 L 343.148438 66.132812 L 342.660156 63.183594 L 339.921875 62 L 342.574219 60.628906 Z M 325.527344 78.832031 L 328.589844 77.71875 C 328.992188 72.617188 330.3125 67.664062 332.449219 63.085938 C 337.039062 53.242188 345.386719 45.144531 356.402344 41.136719 C 367.417969 37.125 379.015625 37.960938 388.863281 42.554688 C 393.441406 44.6875 397.636719 47.632812 401.222656 51.28125 L 404.28125 50.167969 C 400.25 45.8125 395.421875 42.324219 390.121094 39.851562 C 379.582031 34.9375 367.171875 34.042969 355.382812 38.335938 C 343.59375 42.625 334.65625 51.289062 329.746094 61.828125 C 327.273438 67.125 325.820312 72.902344 325.527344 78.832031 Z M 411.640625 47.492188 C 406.589844 41.359375 400.261719 36.519531 393.210938 33.230469 C 380.976562 27.527344 366.570312 26.488281 352.882812 31.46875 C 339.199219 36.449219 328.828125 46.507812 323.125 58.738281 C 319.835938 65.792969 318.101562 73.566406 318.171875 81.511719 L 321.15625 80.425781 C 321.242188 73.296875 322.871094 66.339844 325.828125 60 C 331.207031 48.457031 340.992188 38.972656 353.902344 34.269531 C 366.816406 29.570312 380.410156 30.550781 391.949219 35.933594 C 398.289062 38.890625 404.007812 43.175781 408.65625 48.578125 Z M 416.3125 83.222656 L 413.253906 84.335938 C 412.851562 89.433594 411.53125 94.390625 409.394531 98.96875 C 404.804688 108.8125 396.457031 116.910156 385.441406 120.917969 C 374.425781 124.929688 362.828125 124.09375 352.980469 119.5 C 348.402344 117.367188 344.207031 114.421875 340.621094 110.773438 L 337.558594 111.886719 C 341.59375 116.242188 346.417969 119.734375 351.722656 122.203125 C 362.257812 127.117188 374.671875 128.011719 386.460938 123.722656 C 398.25 119.429688 407.183594 110.765625 412.097656 100.226562 C 414.570312 94.929688 416.023438 89.152344 416.3125 83.222656 Z M 423.671875 80.546875 L 420.6875 81.628906 C 420.597656 88.757812 418.972656 95.714844 416.015625 102.054688 C 410.636719 113.597656 400.851562 123.085938 387.9375 127.785156 C 375.027344 132.484375 361.433594 131.503906 349.890625 126.125 C 343.550781 123.167969 337.832031 118.882812 333.183594 113.480469 L 330.199219 114.566406 C 335.25 120.699219 341.578125 125.535156 348.632812 128.824219 C 360.863281 134.53125 375.273438 135.570312 388.957031 130.585938 C 402.640625 125.605469 413.011719 115.550781 418.714844 103.316406 C 422.007812 96.261719 423.742188 88.488281 423.671875 80.546875 Z M 315.855469 115.902344 L 435.519531 72.351562 L 436.769531 75.777344 L 427.816406 79.035156 C 429.351562 80.476562 431.339844 81.75 431.253906 83.664062 C 431.121094 86.683594 425.980469 87.664062 425.453125 90.644531 C 424.929688 93.621094 429.425781 96.300781 428.515625 99.1875 C 427.605469 102.074219 422.386719 101.6875 421.105469 104.429688 C 419.828125 107.171875 423.476562 110.925781 421.855469 113.476562 C 420.230469 116.027344 415.285156 114.304688 413.339844 116.621094 C 411.394531 118.9375 413.949219 123.507812 411.722656 125.550781 C 409.492188 127.59375 405.160156 124.652344 402.683594 126.386719 C 400.203125 128.125 401.492188 133.199219 398.804688 134.59375 C 396.121094 135.992188 392.703125 132.027344 389.859375 133.0625 C 387.015625 134.097656 386.945312 139.332031 383.992188 139.988281 C 381.039062 140.640625 378.761719 135.925781 375.746094 136.191406 C 372.734375 136.453125 371.308594 141.492188 368.285156 141.359375 C 365.265625 141.226562 364.285156 136.085938 361.304688 135.558594 C 358.324219 135.035156 355.644531 139.53125 352.761719 138.625 C 349.875 137.714844 350.261719 132.492188 347.519531 131.214844 C 344.777344 129.933594 341.023438 133.585938 338.472656 131.960938 C 335.917969 130.335938 337.644531 125.390625 335.328125 123.445312 C 333.007812 121.5 328.441406 124.054688 326.394531 121.828125 C 325.101562 120.414062 325.804688 118.164062 326.058594 116.074219 L 317.105469 119.332031 Z M 351.980469 28.992188 C 354.824219 27.957031 354.898438 22.722656 357.851562 22.070312 C 360.804688 21.414062 363.082031 26.128906 366.097656 25.863281 C 369.109375 25.601562 370.535156 20.5625 373.558594 20.695312 C 376.578125 20.828125 377.558594 25.96875 380.539062 26.496094 C 383.515625 27.019531 386.195312 22.523438 389.082031 23.429688 C 391.964844 24.34375 391.582031 29.5625 394.324219 30.84375 C 397.066406 32.121094 400.816406 28.46875 403.371094 30.09375 C 405.921875 31.71875 404.199219 36.664062 406.515625 38.609375 C 408.832031 40.554688 413.402344 38 415.445312 40.230469 C 416.738281 41.640625 416.035156 43.890625 415.785156 45.980469 L 424.738281 42.722656 L 425.984375 46.152344 L 306.324219 89.707031 L 305.074219 86.277344 L 314.027344 83.019531 C 312.492188 81.578125 310.503906 80.304688 310.589844 78.394531 C 310.722656 75.371094 315.863281 74.390625 316.390625 71.414062 C 316.914062 68.433594 312.414062 65.753906 313.324219 62.867188 C 314.238281 59.980469 319.457031 60.367188 320.734375 57.625 C 322.011719 54.882812 318.363281 51.132812 319.988281 48.578125 C 321.613281 46.027344 326.558594 47.753906 328.503906 45.433594 C 330.449219 43.117188 327.890625 38.546875 330.121094 36.503906 C 332.351562 34.460938 336.683594 37.402344 339.160156 35.667969 C 341.640625 33.933594 340.351562 28.855469 343.035156 27.460938 C 345.71875 26.0625 349.140625 30.027344 351.980469 28.992188 Z M 351.980469 28.992188 " fill-opacity="1" fill-rule="evenodd"/></g><path fill="#545454" d="M 423.867188 70.972656 L 433.714844 67.390625 L 432.453125 63.925781 L 426.847656 65.964844 L 425.667969 62.726562 L 430.730469 60.886719 L 429.515625 57.558594 L 424.457031 59.398438 L 423.441406 56.617188 L 428.847656 54.652344 L 427.585938 51.1875 L 417.941406 54.695312 Z M 414.328125 62.644531 L 418.433594 61.152344 L 418.0625 60.128906 C 416.914062 56.980469 414.746094 55.5 410.917969 56.890625 C 406.519531 58.492188 405.917969 61.242188 408.183594 67.464844 C 410.390625 73.53125 412.308594 75.542969 417.074219 73.808594 C 419.789062 72.820312 422.058594 70.753906 420.398438 66.195312 L 419.957031 64.988281 L 415.855469 66.480469 C 416.976562 69.558594 417.078125 70.554688 416.03125 70.933594 C 414.730469 71.40625 414.160156 70.273438 412.5625 65.875 C 410.960938 61.472656 410.664062 60.238281 411.964844 59.765625 C 412.785156 59.464844 413.324219 59.890625 413.996094 61.734375 Z M 398.128906 80.34375 L 402.097656 78.898438 L 398.4375 68.84375 L 398.480469 68.828125 L 404.96875 77.851562 L 409.621094 76.160156 L 403.695312 59.882812 L 399.726562 61.328125 L 403.378906 71.355469 L 403.335938 71.375 L 396.949219 62.339844 L 392.203125 64.066406 Z M 389.773438 76.539062 L 387.402344 77.402344 L 386.050781 70.070312 L 386.097656 70.054688 Z M 384.152344 85.429688 L 388.667969 83.785156 L 388.0625 80.777344 L 391.4375 79.550781 L 392.90625 82.242188 L 397.421875 80.601562 L 387.53125 65.765625 L 382.195312 67.707031 Z M 379.367188 87.171875 L 383.609375 85.628906 L 377.683594 69.351562 L 373.441406 70.894531 Z M 368.972656 90.953125 L 378.433594 87.511719 L 377.171875 84.046875 L 371.949219 85.945312 L 367.285156 73.132812 L 363.046875 74.675781 Z M 355.996094 80.703125 L 356.792969 80.414062 C 357.867188 80.023438 358.667969 80.453125 359.160156 81.796875 C 359.65625 83.167969 359.308594 83.988281 358.238281 84.378906 L 357.441406 84.667969 Z M 356.570312 95.46875 L 360.808594 93.925781 L 358.554688 87.722656 L 360.035156 87.183594 C 363.476562 85.929688 364.738281 83.507812 363.527344 80.179688 C 362.492188 77.332031 360.242188 75.699219 357.007812 76.875 L 350.644531 79.191406 Z M 339.289062 101.757812 L 343.257812 100.3125 L 338.84375 88.183594 L 338.886719 88.167969 L 345.558594 99.476562 L 348.613281 98.363281 L 346.453125 85.414062 L 346.5 85.398438 L 350.914062 97.527344 L 354.882812 96.082031 L 348.957031 79.804688 L 342.894531 82.011719 L 344.695312 92.277344 L 344.648438 92.296875 L 339.429688 83.273438 L 333.363281 85.480469 Z M 327.707031 96.753906 C 326.105469 92.355469 325.8125 91.121094 327.113281 90.648438 C 328.410156 90.175781 328.980469 91.308594 330.582031 95.710938 C 332.183594 100.109375 332.476562 101.34375 331.179688 101.816406 C 329.878906 102.292969 329.308594 101.15625 327.707031 96.753906 Z M 323.332031 98.347656 C 325.546875 104.433594 327.890625 106.265625 332.222656 104.691406 C 336.554688 103.113281 337.171875 100.203125 334.957031 94.117188 C 332.742188 88.03125 330.398438 86.199219 326.066406 87.773438 C 321.734375 89.351562 321.117188 92.261719 323.332031 98.347656 Z M 317.238281 97.984375 L 321.339844 96.492188 L 320.96875 95.464844 C 319.820312 92.320312 317.65625 90.835938 313.824219 92.230469 C 309.425781 93.832031 308.824219 96.582031 311.089844 102.804688 C 313.296875 108.867188 315.21875 110.878906 319.980469 109.144531 C 322.695312 108.160156 324.964844 106.09375 323.304688 101.535156 L 322.863281 100.328125 L 318.761719 101.820312 C 319.882812 104.898438 319.984375 105.894531 318.9375 106.273438 C 317.636719 106.746094 317.070312 105.613281 315.46875 101.210938 C 313.867188 96.8125 313.570312 95.578125 314.871094 95.105469 C 315.691406 94.804688 316.230469 95.226562 316.90625 97.074219 Z M 317.238281 97.984375 " fill-opacity="1" fill-rule="nonzero"/><g clip-path="url(#4463120d20)"><g clip-path="url(#8929c4ad90)"><g transform="matrix(1, 0, 0, 1, 17, 14)"><g clip-path="url(#cf87de677f)"><g clip-path="url(#779786a9cb)"><g clip-path="url(#5cfa13eb73)"><path fill="#fdfdfd" d="M 0.460938 0.449219 L 174.710938 0.449219 L 174.710938 133.605469 L 0.460938 133.605469 Z M 0.460938 0.449219 " fill-opacity="1" fill-rule="nonzero"/></g></g></g></g></g></g><g clip-path="url(#82cc4b6966)"><g clip-path="url(#ce4481c43f)"><path stroke-linecap="butt" transform="matrix(0.745482, 0, 0, 0.745482, 17.462346, 14.448979)" fill="none" stroke-linejoin="miter" d="M 23.99685 0.000321443 L 209.704128 0.000321443 C 216.070606 0.000321443 222.175088 2.531193 226.676162 7.032267 C 231.177236 11.53334 233.702867 17.632583 233.702867 23.999061 L 233.702867 154.608796 C 233.702867 160.975273 231.177236 167.079756 226.676162 171.58083 C 222.175088 176.081904 216.070606 178.607535 209.704128 178.607535 L 23.99685 178.607535 C 17.635612 178.607535 11.531129 176.081904 7.030056 171.58083 C 2.528982 167.079756 -0.00188944 160.975273 -0.00188944 154.608796 L -0.00188944 23.999061 C -0.00188944 17.632583 2.528982 11.53334 7.030056 7.032267 C 11.531129 2.531193 17.635612 0.000321443 23.99685 0.000321443 Z M 23.99685 0.000321443 " stroke="#545454" stroke-width="6" stroke-opacity="1" stroke-miterlimit="4"/></g></g><g clip-path="url(#9c4791a845)"><path fill="#545454" d="M 135.789062 102.203125 C 128.394531 102.53125 122.1875 104.289062 114.355469 108.214844 C 113.765625 108.523438 112.996094 108.28125 112.691406 107.667969 C 112.382812 107.050781 112.625 106.304688 113.238281 106 C 121.398438 101.898438 127.890625 100.097656 135.65625 99.726562 C 137.300781 99.703125 137.410156 102.09375 135.789062 102.203125 Z M 135.679688 87.703125 C 127.914062 88.054688 121.398438 89.875 113.261719 93.976562 C 112.644531 94.285156 112.40625 95.03125 112.710938 95.644531 C 113.019531 96.257812 113.765625 96.5 114.378906 96.195312 C 122.1875 92.265625 128.394531 90.535156 135.8125 90.183594 C 137.410156 90.074219 137.300781 87.683594 135.679688 87.703125 Z M 112.710938 83.601562 C 113.019531 84.214844 113.765625 84.457031 114.378906 84.148438 C 122.1875 80.222656 128.394531 78.492188 135.8125 78.140625 C 137.433594 78.03125 137.324219 75.640625 135.699219 75.660156 C 127.933594 76.011719 121.421875 77.832031 113.28125 81.933594 C 112.644531 82.242188 112.40625 82.988281 112.710938 83.601562 Z M 117.800781 69.125 C 118.0625 69.761719 118.808594 70.046875 119.425781 69.78125 C 123.351562 68.160156 126.96875 67.128906 130.808594 66.558594 C 131.488281 66.449219 131.949219 65.832031 131.839844 65.152344 C 131.730469 64.472656 131.117188 64.011719 130.4375 64.121094 C 126.398438 64.714844 122.605469 65.789062 118.480469 67.5 C 117.824219 67.765625 117.539062 68.488281 117.800781 69.125 Z M 110.035156 42.953125 C 110.035156 42.953125 102.511719 50.476562 102.511719 50.476562 L 99.332031 47.296875 C 98.191406 46.15625 96.457031 47.890625 97.574219 49.050781 C 97.574219 49.050781 101.632812 53.109375 101.632812 53.109375 C 102.117188 53.59375 102.90625 53.59375 103.386719 53.109375 L 111.789062 44.707031 C 112.929688 43.566406 111.199219 41.8125 110.035156 42.953125 Z M 107.183594 64.5625 C 106.371094 64.847656 105.539062 65.132812 104.683594 65.242188 C 103.828125 65.132812 102.992188 64.847656 102.183594 64.5625 C 94.898438 61.929688 90.027344 54.953125 90.027344 47.210938 L 90.027344 35.011719 C 90.027344 34.441406 90.425781 33.9375 90.996094 33.804688 L 104.417969 30.84375 C 104.59375 30.800781 104.769531 30.800781 104.945312 30.84375 L 118.371094 33.804688 C 118.941406 33.9375 119.335938 34.441406 119.335938 35.011719 L 119.335938 47.230469 C 119.335938 54.976562 114.464844 61.929688 107.183594 64.5625 Z M 116.878906 47.230469 L 116.878906 36 L 104.683594 33.324219 L 92.484375 36 L 92.484375 47.230469 C 92.464844 54.515625 97.574219 61.074219 104.683594 62.761719 C 111.769531 61.074219 116.902344 54.515625 116.878906 47.230469 Z M 160.621094 68.75 L 160.621094 134.84375 C 160.644531 135.503906 160.050781 136.097656 159.390625 136.074219 C 139.210938 130.414062 124.777344 130.414062 104.59375 136.074219 C 84.480469 130.503906 70.175781 130.304688 50.105469 136.03125 C 49.335938 136.273438 48.503906 135.636719 48.523438 134.84375 L 48.523438 68.75 C 48.523438 68.203125 48.898438 67.71875 49.425781 67.566406 C 51.617188 66.953125 53.746094 66.402344 55.808594 65.921875 L 55.808594 63.3125 C 55.808594 62.761719 56.179688 62.28125 56.707031 62.125 C 58.902344 61.511719 61.007812 60.984375 63.046875 60.523438 L 63.046875 50.609375 C 63.046875 49.929688 63.574219 49.402344 64.253906 49.382812 C 72.347656 49.183594 78.996094 49.796875 85.464844 51.378906 C 84.742188 48.570312 85.203125 34.15625 85.070312 31.0625 C 85.070312 30.492188 85.464844 29.988281 86.035156 29.855469 L 104.398438 25.820312 C 104.574219 25.777344 104.75 25.777344 104.925781 25.820312 C 107.445312 26.371094 120.476562 29.242188 123.285156 29.855469 C 123.855469 29.988281 124.25 30.492188 124.25 31.0625 C 124.140625 34.070312 124.558594 48.679688 123.878906 51.355469 C 130.347656 49.796875 136.953125 49.160156 144.957031 49.382812 C 145.636719 49.402344 146.164062 49.953125 146.164062 50.609375 L 146.164062 60.523438 C 148.074219 60.964844 150.113281 61.46875 152.394531 62.105469 C 152.921875 62.257812 153.292969 62.742188 153.292969 63.289062 L 153.292969 65.898438 C 155.355469 66.382812 157.484375 66.929688 159.675781 67.542969 C 160.246094 67.699219 160.621094 68.203125 160.621094 68.75 Z M 144.9375 118.570312 C 141.292969 118.480469 137.542969 118.546875 134.035156 118.898438 C 128.265625 119.445312 122.757812 120.695312 117.273438 122.648438 C 128.503906 120.828125 139.957031 122.078125 150.882812 125.105469 L 150.882812 64.253906 C 149.214844 63.792969 147.65625 63.398438 146.207031 63.070312 L 146.207031 117.339844 C 146.207031 117.667969 146.078125 118 145.835938 118.21875 C 145.59375 118.4375 145.265625 118.570312 144.9375 118.570312 Z M 123.285156 54.03125 C 120.9375 61.972656 114.027344 68.421875 105.867188 70.089844 L 105.824219 124.753906 C 117.867188 118.855469 129.976562 115.652344 143.75 116.046875 L 143.75 51.816406 C 135.964844 51.707031 129.601562 52.386719 123.285156 54.03125 Z M 58.285156 125.082031 C 69.210938 122.121094 80.792969 120.871094 92.023438 122.648438 C 83.164062 119.511719 73.707031 118.109375 64.320312 118.546875 C 63.992188 118.570312 63.660156 118.4375 63.421875 118.195312 C 63.179688 117.953125 63.046875 117.648438 63.046875 117.320312 L 63.046875 63.046875 C 61.511719 63.398438 59.910156 63.816406 58.285156 64.253906 Z M 103.34375 127.671875 C 95.449219 125.5 87.398438 124.097656 79.191406 124.292969 C 71.820312 124.46875 64.472656 125.917969 57.386719 127.914062 C 57.015625 128.023438 56.621094 127.9375 56.3125 127.714844 C 56.003906 127.476562 55.828125 127.125 55.828125 126.730469 L 55.828125 68.445312 C 54.273438 68.816406 52.671875 69.234375 51.027344 69.671875 L 51.027344 133.199219 C 70.175781 128.023438 84.214844 128.023438 103.367188 133.199219 L 103.367188 127.671875 Z M 103.34375 70.066406 C 95.25 68.289062 88.492188 62.082031 86.101562 54.074219 C 79.761719 52.40625 73.335938 51.683594 65.527344 51.816406 L 65.527344 116.066406 C 76.210938 115.828125 86.890625 117.648438 96.742188 121.835938 C 97.378906 122.101562 103.234375 124.863281 103.367188 124.710938 C 103.34375 124.710938 103.34375 70.066406 103.34375 70.066406 Z M 110.890625 65.613281 C 117.515625 61.996094 121.816406 54.953125 121.816406 47.253906 L 121.816406 32.050781 L 104.683594 28.277344 L 87.550781 32.050781 C 87.769531 36.613281 86.847656 49.359375 88.539062 53.570312 C 90.753906 60.503906 96.652344 66.074219 103.785156 67.609375 C 106.066406 68.113281 108.917969 66.6875 110.890625 65.613281 Z M 158.140625 69.695312 C 156.496094 69.234375 154.894531 68.839844 153.339844 68.464844 C 153.339844 68.464844 153.339844 126.730469 153.339844 126.730469 C 153.339844 127.519531 152.546875 128.132812 151.757812 127.914062 C 143.839844 125.675781 135.746094 124.183594 127.476562 124.292969 C 120.148438 124.382812 112.84375 125.742188 105.78125 127.695312 C 105.78125 127.695312 105.78125 133.246094 105.78125 133.246094 C 124.929688 128.066406 138.96875 128.066406 158.121094 133.246094 L 158.121094 69.695312 Z M 97.289062 106 C 89.128906 101.898438 82.636719 100.097656 74.871094 99.726562 C 73.269531 99.703125 73.136719 102.074219 74.761719 102.203125 C 82.152344 102.53125 88.363281 104.289062 96.191406 108.214844 C 97.621094 108.9375 98.738281 106.746094 97.289062 106 Z M 97.289062 93.976562 C 89.128906 89.875 82.636719 88.078125 74.871094 87.703125 C 73.269531 87.683594 73.136719 90.050781 74.761719 90.183594 C 82.152344 90.511719 88.363281 92.265625 96.191406 96.195312 C 97.621094 96.894531 98.738281 94.703125 97.289062 93.976562 Z M 74.761719 78.140625 C 82.152344 78.46875 88.363281 80.222656 96.191406 84.148438 C 97.621094 84.875 98.761719 82.679688 97.3125 81.933594 C 89.152344 77.832031 82.660156 76.035156 74.894531 75.660156 C 73.246094 75.640625 73.117188 78.03125 74.761719 78.140625 Z M 78.710938 65.175781 C 78.601562 65.855469 79.082031 66.46875 79.742188 66.578125 C 83.558594 67.148438 87.175781 68.160156 91.125 69.804688 C 92.59375 70.417969 93.5625 68.160156 92.070312 67.523438 C 87.945312 65.8125 84.148438 64.738281 80.113281 64.144531 C 79.433594 64.035156 78.820312 64.496094 78.710938 65.175781 Z M 78.710938 65.175781 " fill-opacity="1" fill-rule="nonzero"/></g></svg>